<svg width="19" height="14" viewBox="0 0 19 14" fill="none" xmlns="http://www.w3.org/2000/svg">
<path d="M0.590942 4.17456V11.4546C0.590942 12.1297 0.859124 12.7771 1.33649 13.2545C1.81385 13.7318 2.4613 14 3.1364 14H15.8637C16.5388 14 17.1862 13.7318 17.6636 13.2545C18.1409 12.7771 18.4091 12.1297 18.4091 11.4546V4.17456L10.8339 8.83529C10.4327 9.08207 9.971 9.21273 9.50003 9.21273C9.02907 9.21273 8.56734 9.08207 8.16622 8.83529L0.590942 4.17456Z" fill="#916CE7"/>
<path d="M18.4091 2.67952V2.54545C18.4091 1.87036 18.1409 1.22291 17.6636 0.745546C17.1862 0.268181 16.5388 0 15.8637 0H3.1364C2.4613 0 1.81385 0.268181 1.33649 0.745546C0.859124 1.22291 0.590942 1.87036 0.590942 2.54545V2.67952L8.83312 7.75176C9.03369 7.87515 9.26455 7.94048 9.50003 7.94048C9.73551 7.94048 9.96638 7.87515 10.1669 7.75176L18.4091 2.67952Z" fill="#916CE7"/>
</svg>
