<svg width="17" height="17" viewBox="0 0 17 17" fill="none" xmlns="http://www.w3.org/2000/svg">
<path fill-rule="evenodd" clip-rule="evenodd" d="M0.691406 8.06697C0.842977 6.05479 1.74926 4.1742 3.2287 2.80193C4.70813 1.42967 6.65145 0.667103 8.66932 0.666992C8.00402 0.666992 7.41167 0.957884 6.9259 1.40334C6.44108 1.84688 6.0321 2.4661 5.70089 3.19765C5.36775 3.93304 5.10854 4.7942 4.93382 5.72831C4.79131 6.5005 4.70627 7.2822 4.67941 8.06697H0.691406ZM0.691406 9.26702H4.67941C4.70821 10.0686 4.79365 10.8578 4.93382 11.6066C5.10854 12.5407 5.36775 13.4009 5.70089 14.1373C6.0321 14.8679 6.44108 15.4871 6.9259 15.9306C7.41264 16.3761 8.00402 16.667 8.66932 16.667C6.65145 16.6669 4.70813 15.9043 3.2287 14.532C1.74926 13.1598 0.842977 11.2792 0.691406 9.26702Z" fill="#CCCCCC"/>
<path d="M8.6681 1.78351C8.44729 1.78351 8.16312 1.87663 7.83287 2.17904C7.49973 2.48338 7.1666 2.96148 6.87283 3.61238C6.58002 4.25849 6.34193 5.03804 6.17872 5.91071C6.04734 6.62271 5.9684 7.3434 5.94255 8.06696H11.3936C11.3675 7.34338 11.2882 6.62269 11.1565 5.91071C10.9933 5.03804 10.7562 4.25849 10.4634 3.61238C10.1686 2.96148 9.83551 2.48338 9.50333 2.17904C9.17212 1.87663 8.88795 1.78351 8.6681 1.78351ZM6.17872 11.4242C6.34193 12.2959 6.58001 13.0755 6.87187 13.7225C7.1666 14.3725 7.49973 14.8506 7.83287 15.1549C8.16312 15.4573 8.44729 15.5514 8.6681 15.5514C8.88795 15.5514 9.17212 15.4573 9.50333 15.1549C9.83551 14.8506 10.1686 14.3725 10.4634 13.7225C10.7562 13.0755 10.9933 12.2959 11.1565 11.4242C11.2883 10.7119 11.3675 9.99091 11.3936 9.26701H5.94159C5.96943 10.0091 6.05007 10.7368 6.17872 11.4242Z" fill="#CCCCCC"/>
<path d="M8.66797 0.666992C9.33232 0.666992 9.92466 0.957884 10.4114 1.40334C10.8953 1.84688 11.3042 2.4661 11.6364 3.19765C11.9686 3.93304 12.2278 4.7942 12.4025 5.72831C12.5436 6.47714 12.6291 7.2663 12.6569 8.06697H16.6459C16.4943 6.05479 15.588 4.1742 14.1086 2.80193C12.6292 1.42967 10.6858 0.667103 8.66797 0.666992ZM12.4025 11.6066C12.2278 12.5407 11.9686 13.4009 11.6364 14.1373C11.3052 14.8679 10.8953 15.4871 10.4114 15.9306C9.92466 16.3761 9.33232 16.667 8.66797 16.667C10.6858 16.6669 12.6292 15.9043 14.1086 14.532C15.588 13.1598 16.4943 11.2792 16.6459 9.26702H12.6569C12.6304 10.0521 12.5453 10.8342 12.4025 11.6066Z" fill="#CCCCCC"/>
</svg>
