<svg width="16" height="16" viewBox="0 0 16 16" fill="none" xmlns="http://www.w3.org/2000/svg">
<path fill-rule="evenodd" clip-rule="evenodd" d="M4.72793 1.80519C4.62269 1.39495 4.41079 1.01986 4.11373 0.717993C3.81667 0.416128 3.44502 0.198235 3.03653 0.086434C2.62803 -0.0253667 2.19723 -0.0270944 1.78785 0.0814264C1.37847 0.189947 1.00509 0.404852 0.705615 0.704326C0.406142 1.0038 0.191236 1.37718 0.0827157 1.78656C-0.025805 2.19594 -0.0240773 2.62674 0.0877234 3.03524C0.199524 3.44373 0.417417 3.81538 0.719283 4.11244C1.02115 4.4095 1.39624 4.6214 1.80648 4.72664C1.80333 4.75147 1.80173 4.77647 1.80168 4.8015V11.1991C1.80173 11.2242 1.80333 11.2492 1.80648 11.274C1.3959 11.3788 1.0204 11.5905 0.718127 11.8875C0.415853 12.1844 0.197582 12.5561 0.0854954 12.9648C-0.0265915 13.3734 -0.0284994 13.8045 0.0799656 14.2141C0.188431 14.6237 0.403402 14.9973 0.703035 15.297C1.00267 15.5966 1.37628 15.8116 1.78591 15.92C2.19554 16.0285 2.62658 16.0266 3.03523 15.9145C3.44388 15.8024 3.81558 15.5841 4.11255 15.2819C4.40952 14.9796 4.62117 14.6041 4.72601 14.1935C4.75084 14.1967 4.77584 14.1983 4.80087 14.1983H11.1995C11.2242 14.1983 11.2489 14.1967 11.2734 14.1935C11.3782 14.604 11.5899 14.9795 11.8868 15.2817C12.1838 15.5839 12.5554 15.8021 12.964 15.9142C13.3726 16.0263 13.8036 16.0282 14.2132 15.9198C14.6228 15.8114 14.9963 15.5965 15.296 15.297C15.5956 14.9974 15.8106 14.6239 15.9192 14.2144C16.0277 13.8048 16.0259 13.3738 15.914 12.9652C15.8021 12.5566 15.5839 12.1849 15.2818 11.8878C14.9797 11.5908 14.6043 11.379 14.1939 11.274C14.197 11.2492 14.1986 11.2242 14.1987 11.1991V4.80054C14.1986 4.77551 14.197 4.75051 14.1939 4.72568C14.6043 4.62064 14.9796 4.40886 15.2816 4.11185C15.5837 3.81483 15.8018 3.44316 15.9137 3.03459C16.0257 2.62602 16.0275 2.19509 15.919 1.78559C15.8105 1.37608 15.5956 1.00259 15.296 0.703035C14.9965 0.403482 14.623 0.188544 14.2135 0.0800507C13.8039 -0.0284422 13.373 -0.0266243 12.9645 0.0853195C12.5559 0.197263 12.1842 0.415345 11.8872 0.717415C11.5902 1.01948 11.3784 1.39478 11.2734 1.80519C11.2488 1.8024 11.2242 1.80112 11.1995 1.80135H4.80183C4.77682 1.80108 4.75278 1.80236 4.72793 1.80519ZM2.99655 4.72664C2.9997 4.75147 3.0013 4.77647 3.00135 4.8015V11.1991C3.0013 11.2242 2.9997 11.2492 2.99655 11.274C3.84401 11.4899 4.51007 12.157 4.72601 13.0034C4.75084 13.0003 4.77584 12.9987 4.80087 12.9986H11.1995C11.2242 12.9987 11.2489 13.0003 11.2734 13.0034C11.3804 12.5868 11.5974 12.2065 11.9016 11.9023C12.2058 11.598 12.5861 11.3811 13.0028 11.274C13 11.2491 12.9987 11.2241 12.999 11.1991V4.80054C12.9987 4.77553 13 4.75053 13.0028 4.72568C12.5861 4.6186 12.2058 4.40163 11.9016 4.09742C11.5974 3.79321 11.3804 3.41291 11.2734 2.99622C11.2488 2.99933 11.2242 3.00093 11.1995 3.00102H4.80183C4.7768 3.00097 4.7518 2.99937 4.72697 2.99622C4.61989 3.41291 4.40292 3.79321 4.09871 4.09742C3.7945 4.40163 3.4142 4.6186 2.99751 4.72568L2.99655 4.72664Z" fill="#CCCCCC"/>
</svg>
