<svg width="18" height="16" viewBox="0 0 18 16" fill="none" xmlns="http://www.w3.org/2000/svg">
<path fill-rule="evenodd" clip-rule="evenodd" d="M7.80031 0H9.4007C11.6635 0 12.7944 -1.14445e-07 13.4972 0.702748C14.2009 1.4055 14.2009 2.53642 14.2009 4.80019V11.1998C14.2009 13.4626 14.2009 14.5945 13.4972 15.2973C12.7944 16 11.6635 16 9.4007 16H7.80031C5.5375 16 4.40562 16 3.70287 15.2973C3.00012 14.5945 3.00012 13.4636 3.00012 11.1998V4.80019C3.00012 2.53738 3.00012 1.4055 3.70287 0.702748C4.40562 -1.14445e-07 5.5375 0 7.80031 0ZM5.5999 8.79971C5.5999 8.4685 5.86871 8.19969 6.19993 8.19969H11.0001C11.1593 8.19969 11.3119 8.2629 11.4244 8.37543C11.5369 8.48796 11.6001 8.64058 11.6001 8.79971C11.6001 8.95885 11.5369 9.11147 11.4244 9.22399C11.3119 9.33652 11.1593 9.39974 11.0001 9.39974H6.19993C6.04079 9.39974 5.88817 9.33652 5.77565 9.22399C5.66312 9.11147 5.5999 8.95885 5.5999 8.79971ZM5.5999 5.5999C5.5999 5.26869 5.86871 4.99988 6.19993 4.99988H11.0001C11.1593 4.99988 11.3119 5.0631 11.4244 5.17562C11.5369 5.28815 11.6001 5.44077 11.6001 5.5999C11.6001 5.75904 11.5369 5.91166 11.4244 6.02418C11.3119 6.13671 11.1593 6.19993 11.0001 6.19993H6.19993C6.04079 6.19993 5.88817 6.13671 5.77565 6.02418C5.66312 5.91166 5.5999 5.75904 5.5999 5.5999ZM5.5999 12.0005C5.5999 11.6693 5.86871 11.4005 6.19993 11.4005H8.60002C8.75916 11.4005 8.91178 11.4637 9.02431 11.5762C9.13683 11.6887 9.20005 11.8413 9.20005 12.0005C9.20005 12.1596 9.13683 12.3122 9.02431 12.4248C8.91178 12.5373 8.75916 12.6005 8.60002 12.6005H6.19993C6.04079 12.6005 5.88817 12.5373 5.77565 12.4248C5.66312 12.3122 5.5999 12.1596 5.5999 12.0005ZM0.600024 1.80007C0.931237 1.80007 1.20005 2.06888 1.20005 2.4001V13.5999C1.20005 13.759 1.13683 13.9117 1.02431 14.0242C0.911779 14.1367 0.75916 14.1999 0.600024 14.1999C0.440888 14.1999 0.288269 14.1367 0.175743 14.0242C0.0632166 13.9117 0 13.759 0 13.5999V2.4001C0 2.06888 0.268811 1.80007 0.600024 1.80007ZM16.601 1.80007C16.9322 1.80007 17.201 2.06888 17.201 2.4001V13.5999C17.201 13.759 17.1378 13.9117 17.0253 14.0242C16.9127 14.1367 16.7601 14.1999 16.601 14.1999C16.4418 14.1999 16.2892 14.1367 16.1767 14.0242C16.0642 13.9117 16.001 13.759 16.001 13.5999V2.4001C16.001 2.06888 16.2698 1.80007 16.601 1.80007Z" fill="#CCCCCC"/>
</svg>
