<svg width="16" height="16" viewBox="0 0 16 16" fill="none" xmlns="http://www.w3.org/2000/svg">
<path fill-rule="evenodd" clip-rule="evenodd" d="M0.936997 0.936997C-1.71668e-07 1.87399 0 3.38318 0 6.39962V9.60038C0 12.6168 -1.71668e-07 14.126 0.936997 15.063C1.87495 16 3.38318 16 6.39962 16H9.60038C12.6178 16 14.126 16 15.063 15.063C16.001 14.126 16.001 12.6168 16.001 9.60038V6.39962C16.001 3.38318 16.001 1.87399 15.063 0.936997C14.126 -1.71668e-07 12.6178 0 9.60038 0H6.40058C3.38318 0 1.87495 -1.71668e-07 0.937957 0.936997H0.936997ZM4.73011 5.37333C4.87603 4.89236 5.1266 4.47474 5.39734 4.18673C5.68535 3.88048 5.91864 3.79983 6.01848 3.79983C6.26329 3.79983 6.59162 3.94192 6.89116 4.61298C7.19357 5.29173 7.39998 6.39482 7.39998 8C7.39998 9.67911 7.61214 10.9761 8.0144 11.8766C8.41954 12.7839 9.08196 13.4002 9.98248 13.4002C10.5614 13.4002 11.0884 13.0479 11.4763 12.636C11.9128 12.1606 12.2352 11.5919 12.4191 10.9732C12.465 10.8209 12.4486 10.6564 12.3733 10.5162C12.298 10.3759 12.1701 10.2713 12.0178 10.2254C11.8654 10.1794 11.701 10.1959 11.5607 10.2711C11.4205 10.3464 11.3158 10.4743 11.2699 10.6267C11.1398 11.0674 10.9117 11.4731 10.6027 11.8133C10.3147 12.1195 10.0823 12.2002 9.98248 12.2002C9.73767 12.2002 9.40934 12.0581 9.1098 11.387C8.80739 10.7083 8.60098 9.60518 8.60098 8C8.60098 6.32089 8.38882 5.02388 7.98656 4.12336C7.58142 3.21517 6.919 2.59978 6.01848 2.59978C5.43958 2.59978 4.91156 2.95212 4.52466 3.36397C4.08825 3.83911 3.76583 4.40743 3.5819 5.0258C3.54046 5.17667 3.55958 5.33776 3.63519 5.47473C3.7108 5.6117 3.83692 5.71372 3.98667 5.75905C4.13641 5.80437 4.29794 5.78941 4.43682 5.71736C4.57569 5.64531 4.68094 5.52186 4.73011 5.37333ZM3.19981 7.39998C3.04067 7.39998 2.88805 7.46319 2.77553 7.57572C2.663 7.68824 2.59978 7.84086 2.59978 8C2.59978 8.15914 2.663 8.31176 2.77553 8.42428C2.88805 8.53681 3.04067 8.60002 3.19981 8.60002H6.00024C6.15938 8.60002 6.312 8.53681 6.42452 8.42428C6.53705 8.31176 6.60026 8.15914 6.60026 8C6.60026 7.84086 6.53705 7.68824 6.42452 7.57572C6.312 7.46319 6.15938 7.39998 6.00024 7.39998H3.19981ZM10.0007 7.39998C9.84158 7.39998 9.68896 7.46319 9.57644 7.57572C9.46391 7.68824 9.4007 7.84086 9.4007 8C9.4007 8.15914 9.46391 8.31176 9.57644 8.42428C9.68896 8.53681 9.84158 8.60002 10.0007 8.60002H12.8002C12.9593 8.60002 13.1119 8.53681 13.2245 8.42428C13.337 8.31176 13.4002 8.15914 13.4002 8C13.4002 7.84086 13.337 7.68824 13.2245 7.57572C13.1119 7.46319 12.9593 7.39998 12.8002 7.39998H10.0007Z" fill="#CCCCCC"/>
</svg>
