<svg width="19" height="18" viewBox="0 0 19 18" fill="none" xmlns="http://www.w3.org/2000/svg">
<path d="M5.72143 0.666667C5.72143 0.489856 5.65119 0.320286 5.52617 0.195262C5.40114 0.0702379 5.23158 0 5.05476 0C4.87795 0 4.70838 0.0702379 4.58336 0.195262C4.45834 0.320286 4.3881 0.489856 4.3881 0.666667V2.07111C3.1081 2.17333 2.26899 2.424 1.6521 3.04178C1.03432 3.65867 0.783653 4.49867 0.680542 5.77778H18.3179C18.2148 4.49778 17.9641 3.65867 17.3463 3.04178C16.7294 2.424 15.8894 2.17333 14.6103 2.07022V0.666667C14.6103 0.489856 14.5401 0.320286 14.4151 0.195262C14.29 0.0702379 14.1205 0 13.9437 0C13.7668 0 13.5973 0.0702379 13.4722 0.195262C13.3472 0.320286 13.277 0.489856 13.277 0.666667V2.01156C12.6859 2 12.0228 2 11.277 2H7.72143C6.97565 2 6.31254 2 5.72143 2.01156V0.666667Z" fill="#916CE7"/>
<path fill-rule="evenodd" clip-rule="evenodd" d="M18.3889 9.11108V10.8889C18.3889 14.2409 18.3889 15.9173 17.3471 16.9582C16.3062 18 14.6298 18 11.2778 18H7.7222C4.3702 18 2.69375 18 1.65286 16.9582C0.611084 15.9173 0.611084 14.2409 0.611084 10.8889V9.11108C0.611084 8.36531 0.611084 7.7022 0.62264 7.11108H18.3773C18.3889 7.7022 18.3889 8.36531 18.3889 9.11108ZM13.0555 10.2222C13.2323 10.2222 13.4019 10.2924 13.5269 10.4175C13.652 10.5425 13.7222 10.7121 13.7222 10.8889V12H14.8333C15.0101 12 15.1797 12.0702 15.3047 12.1952C15.4297 12.3203 15.5 12.4898 15.5 12.6666C15.5 12.8435 15.4297 13.013 15.3047 13.138C15.1797 13.2631 15.0101 13.3333 14.8333 13.3333H13.7222V14.4444C13.7222 14.6212 13.652 14.7908 13.5269 14.9158C13.4019 15.0408 13.2323 15.1111 13.0555 15.1111C12.8787 15.1111 12.7091 15.0408 12.5841 14.9158C12.4591 14.7908 12.3889 14.6212 12.3889 14.4444V13.3333H11.2778C11.1009 13.3333 10.9314 13.2631 10.8063 13.138C10.6813 13.013 10.6111 12.8435 10.6111 12.6666C10.6111 12.4898 10.6813 12.3203 10.8063 12.1952C10.9314 12.0702 11.1009 12 11.2778 12H12.3889V10.8889C12.3889 10.7121 12.4591 10.5425 12.5841 10.4175C12.7091 10.2924 12.8787 10.2222 13.0555 10.2222Z" fill="#916CE7"/>
</svg>
