<svg width="17" height="17" viewBox="0 0 17 17" fill="none" xmlns="http://www.w3.org/2000/svg">
<path d="M7.1676 4.97503C8.04771 3.39703 8.48736 2.60763 9.14519 2.60763C9.80303 2.60763 10.2427 3.39703 11.1228 4.97503L11.35 5.38362C11.6 5.83226 11.7259 6.05617 11.9204 6.20408C12.1149 6.35199 12.3576 6.40674 12.8438 6.51706L13.2851 6.61676C14.9938 7.00329 15.8486 7.19696 16.0513 7.85071C16.2547 8.50446 15.6721 9.18518 14.5068 10.5474L14.206 10.8988C13.8751 11.2862 13.71 11.4798 13.6348 11.7193C13.5613 11.9587 13.5858 12.2169 13.6356 12.7326L13.6814 13.2033C13.8579 15.0207 13.9454 15.9294 13.4134 16.3331C12.8814 16.7376 12.0814 16.3691 10.4821 15.6328L10.0678 15.4416C9.61344 15.2324 9.38626 15.1278 9.14519 15.1278C8.90412 15.1278 8.67695 15.2324 8.22177 15.4416L7.80827 15.6328C6.20904 16.3683 5.40901 16.7376 4.87702 16.3331C4.34503 15.9294 4.43329 15.0207 4.60898 13.2033L4.65475 12.7334C4.70459 12.2169 4.72993 11.9587 4.65475 11.7201C4.5812 11.4798 4.41531 11.287 4.08435 10.8996L3.78281 10.5466C2.61831 9.18518 2.03566 8.50364 2.23832 7.84989C2.44262 7.19614 3.29658 7.00329 5.00532 6.61676L5.4466 6.51706C5.93283 6.40674 6.17553 6.35199 6.37002 6.20408C6.56533 6.05698 6.69036 5.83226 6.94042 5.38362L7.1676 4.97503ZM2.90841 0.56466C2.93293 0.478856 3.08574 0.478038 3.11108 0.56466C3.22548 0.958545 3.43795 1.54038 3.75911 1.8599C4.08026 2.17861 4.66455 2.38699 5.05844 2.49895C5.14587 2.52346 5.14588 2.67709 5.06007 2.70243C4.66619 2.81683 4.08353 3.0293 3.76401 3.35046C3.44531 3.67161 3.23692 4.2559 3.12497 4.64979C3.10045 4.73641 2.94682 4.73722 2.92149 4.6506C2.80708 4.25672 2.59461 3.67488 2.27346 3.35536C1.9523 3.03665 1.36883 2.82827 0.974129 2.71632C0.887507 2.6918 0.88669 2.53817 0.973312 2.51284C1.3672 2.39843 1.94903 2.18596 2.26856 1.86481C2.58726 1.54365 2.79646 0.958545 2.90841 0.56466Z" fill="#916CE7"/>
<path fill-rule="evenodd" clip-rule="evenodd" d="M14.4565 1.17754C14.6191 1.17754 14.7749 1.24211 14.8899 1.35705C15.0048 1.47199 15.0694 1.62788 15.0694 1.79043V1.99472H15.2737C15.4362 1.99472 15.5921 2.0593 15.7071 2.17424C15.822 2.28918 15.8866 2.44507 15.8866 2.60762C15.8866 2.77016 15.822 2.92606 15.7071 3.041C15.5921 3.15593 15.4362 3.22051 15.2737 3.22051H15.0694V3.4248C15.0694 3.58735 15.0048 3.74324 14.8899 3.85818C14.7749 3.97312 14.6191 4.03769 14.4565 4.03769C14.294 4.03769 14.1381 3.97312 14.0231 3.85818C13.9082 3.74324 13.8436 3.58735 13.8436 3.4248V3.22051H13.6393C13.4768 3.22051 13.3209 3.15593 13.2059 3.041C13.091 2.92606 13.0264 2.77016 13.0264 2.60762C13.0264 2.44507 13.091 2.28918 13.2059 2.17424C13.3209 2.0593 13.4768 1.99472 13.6393 1.99472H13.8436V1.79043C13.8436 1.62788 13.9082 1.47199 14.0231 1.35705C14.1381 1.24211 14.294 1.17754 14.4565 1.17754Z" fill="#916CE7"/>
</svg>
