<svg width="18" height="18" viewBox="0 0 18 18" fill="none" xmlns="http://www.w3.org/2000/svg">
<path d="M16.6154 0H1.38462C1.01739 0 0.66521 0.145879 0.405544 0.405544C0.145879 0.66521 0 1.01739 0 1.38462V16.6154C0 16.9826 0.145879 17.3348 0.405544 17.5945C0.66521 17.8541 1.01739 18 1.38462 18H16.6154C16.9826 18 17.3348 17.8541 17.5945 17.5945C17.8541 17.3348 18 16.9826 18 16.6154V1.38462C18 1.01739 17.8541 0.66521 17.5945 0.405544C17.3348 0.145879 16.9826 0 16.6154 0ZM6.23077 13.1538C6.23077 13.3375 6.15783 13.5135 6.028 13.6434C5.89816 13.7732 5.72207 13.8462 5.53846 13.8462C5.35485 13.8462 5.17876 13.7732 5.04893 13.6434C4.91909 13.5135 4.84615 13.3375 4.84615 13.1538V7.61538C4.84615 7.43177 4.91909 7.25568 5.04893 7.12585C5.17876 6.99602 5.35485 6.92308 5.53846 6.92308C5.72207 6.92308 5.89816 6.99602 6.028 7.12585C6.15783 7.25568 6.23077 7.43177 6.23077 7.61538V13.1538ZM5.53846 6.23077C5.26304 6.23077 4.99891 6.12136 4.80416 5.92661C4.60941 5.73186 4.5 5.46772 4.5 5.19231C4.5 4.91689 4.60941 4.65275 4.80416 4.458C4.99891 4.26326 5.26304 4.15385 5.53846 4.15385C5.81388 4.15385 6.07802 4.26326 6.27276 4.458C6.46751 4.65275 6.57692 4.91689 6.57692 5.19231C6.57692 5.46772 6.46751 5.73186 6.27276 5.92661C6.07802 6.12136 5.81388 6.23077 5.53846 6.23077ZM13.8462 13.1538C13.8462 13.3375 13.7732 13.5135 13.6434 13.6434C13.5135 13.7732 13.3375 13.8462 13.1538 13.8462C12.9702 13.8462 12.7941 13.7732 12.6643 13.6434C12.5345 13.5135 12.4615 13.3375 12.4615 13.1538V10.0385C12.4615 9.57943 12.2792 9.1392 11.9546 8.81462C11.63 8.49004 11.1898 8.30769 10.7308 8.30769C10.2717 8.30769 9.83151 8.49004 9.50693 8.81462C9.18235 9.1392 9 9.57943 9 10.0385V13.1538C9 13.3375 8.92706 13.5135 8.79723 13.6434C8.66739 13.7732 8.4913 13.8462 8.30769 13.8462C8.12408 13.8462 7.94799 13.7732 7.81816 13.6434C7.68832 13.5135 7.61538 13.3375 7.61538 13.1538V7.61538C7.61651 7.44601 7.67969 7.28292 7.79296 7.15699C7.90623 7.03106 8.06174 6.95103 8.23005 6.93204C8.39836 6.91304 8.5678 6.95641 8.70628 7.05394C8.84477 7.15146 8.9427 7.29637 8.98154 7.46123C9.44988 7.14344 9.99595 6.95924 10.5611 6.92842C11.1262 6.89759 11.6891 7.02131 12.1892 7.28627C12.6894 7.55124 13.1079 7.94744 13.3998 8.43233C13.6917 8.91722 13.846 9.47248 13.8462 10.0385V13.1538Z" fill="#CCCCCC"/>
</svg>
