<svg width="20" height="20" viewBox="0 0 20 20" fill="none" xmlns="http://www.w3.org/2000/svg">
<g clip-path="url(#clip0_31_48)">
<path d="M11.4777 12.0325C12.1161 13.9243 12.5453 15.8805 12.7577 17.8658C11.8713 18.1762 10.9386 18.3342 9.99939 18.3333C8.34709 18.3358 6.73167 17.8449 5.36023 16.9233C5.99927 15.7391 6.87018 14.6958 7.92105 13.8554C8.97191 13.0149 10.1812 12.3947 11.4769 12.0316L11.4777 12.0325ZM17.9769 12.4183C17.3818 14.3735 16.0907 16.0427 14.3477 17.11C14.1147 15.2787 13.7073 13.4738 13.1311 11.72C14.7792 11.5497 16.4439 11.7895 17.9769 12.4183ZM10.1202 8.73746C10.3969 9.30246 10.6561 9.87913 10.8952 10.465C8.00907 11.3108 5.55973 13.2361 4.05606 15.8408C3.21111 14.975 2.56317 13.9369 2.15657 12.7975C1.74997 11.6581 1.5943 10.4443 1.70023 9.23913C4.48606 9.82913 7.42523 9.65746 10.1202 8.73746ZM16.4327 4.70329C17.8211 6.39882 18.4911 8.57024 18.2994 10.7533C16.4662 10.0633 14.4896 9.8427 12.5494 10.1116C12.2815 9.43471 11.9883 8.76813 11.6702 8.11329C13.4555 7.28187 15.0705 6.12553 16.4327 4.70329ZM6.05439 2.65829C7.29972 4.07082 8.39711 5.60717 9.32939 7.24329C6.96424 7.99659 4.44353 8.12009 2.01606 7.60163C2.65495 5.48436 4.10714 3.70673 6.05439 2.65829ZM9.99939 1.66663C11.9894 1.66663 13.8169 2.36413 15.2494 3.52829C14.009 4.82925 12.5328 5.8829 10.8994 6.63329C9.9794 4.98646 8.90216 3.43255 7.68273 1.99329C8.43576 1.77606 9.21566 1.66609 9.99939 1.66663Z" fill="#CCCCCC"/>
</g>
<defs>
<clipPath id="clip0_31_48">
<rect width="20" height="20" fill="white"/>
</clipPath>
</defs>
</svg>
