<svg width="16" height="14" viewBox="0 0 16 14" fill="none" xmlns="http://www.w3.org/2000/svg">
<path d="M15.5805 2.74582L13.4004 4.92666C12.9594 10.0319 8.65373 14 3.50107 14C2.44254 14 1.5699 13.832 0.907246 13.5015C0.372147 13.2339 0.153597 12.9469 0.0983759 12.8652C0.0496972 12.7921 0.0181818 12.7088 0.00618403 12.6218C-0.00581376 12.5347 0.00201619 12.4461 0.029089 12.3625C0.0561618 12.2789 0.101778 12.2024 0.162529 12.1389C0.22328 12.0754 0.297596 12.0265 0.379925 11.9957C0.398591 11.9879 2.14699 11.3167 3.25763 10.0389C2.64176 9.53225 2.10421 8.9373 1.66245 8.27336C0.757916 6.9325 -0.254727 4.60078 0.0579324 1.11564C0.0679494 1.00495 0.109382 0.899422 0.177353 0.811483C0.245324 0.723545 0.337004 0.656855 0.4416 0.619266C0.546196 0.581677 0.659354 0.574753 0.767752 0.599309C0.876151 0.623864 0.975278 0.678877 1.05346 0.757872C1.07913 0.782761 3.48007 3.17048 6.41534 3.94513V3.50025C6.41422 3.03452 6.50634 2.57327 6.68627 2.14369C6.86619 1.71412 7.13028 1.3249 7.46298 0.998978C7.78595 0.676539 8.17022 0.422053 8.59314 0.250536C9.01605 0.0790192 9.46904 -0.00605434 9.92536 0.000334967C10.5374 0.00649107 11.1375 0.170876 11.6672 0.477515C12.1969 0.784154 12.6383 1.22262 12.9485 1.75029H15.1682C15.2835 1.75039 15.3962 1.78466 15.492 1.84876C15.5879 1.91287 15.6626 2.00393 15.7067 2.11046C15.7508 2.21698 15.7623 2.33419 15.7399 2.44727C15.7174 2.56036 15.6619 2.66425 15.5805 2.74582Z" fill="#CCCCCC"/>
</svg>
