<svg width="18" height="18" viewBox="0 0 18 18" fill="none" xmlns="http://www.w3.org/2000/svg">
<path d="M13.1538 0H4.84615C3.56132 0.00146587 2.32954 0.512512 1.42102 1.42102C0.512512 2.32954 0.00146587 3.56132 0 4.84615V13.1538C0.00146587 14.4387 0.512512 15.6705 1.42102 16.579C2.32954 17.4875 3.56132 17.9985 4.84615 18H13.1538C14.4387 17.9985 15.6705 17.4875 16.579 16.579C17.4875 15.6705 17.9985 14.4387 18 13.1538V4.84615C17.9985 3.56132 17.4875 2.32954 16.579 1.42102C15.6705 0.512512 14.4387 0.00146587 13.1538 0ZM9 13.1538C7.89833 13.1538 6.84178 12.7162 6.06279 11.9372C5.28379 11.1582 4.84615 10.1017 4.84615 9C4.84615 7.89833 5.28379 6.84178 6.06279 6.06279C6.84178 5.28379 7.89833 4.84615 9 4.84615C10.1017 4.84615 11.1582 5.28379 11.9372 6.06279C12.7162 6.84178 13.1538 7.89833 13.1538 9C13.1538 10.1017 12.7162 11.1582 11.9372 11.9372C11.1582 12.7162 10.1017 13.1538 9 13.1538ZM14.1923 4.84615C13.9169 4.84615 13.6528 4.73674 13.458 4.542C13.2633 4.34725 13.1538 4.08311 13.1538 3.80769C13.1538 3.53228 13.2633 3.26814 13.458 3.07339C13.6528 2.87864 13.9169 2.76923 14.1923 2.76923C14.4677 2.76923 14.7319 2.87864 14.9266 3.07339C15.1214 3.26814 15.2308 3.53228 15.2308 3.80769C15.2308 4.08311 15.1214 4.34725 14.9266 4.542C14.7319 4.73674 14.4677 4.84615 14.1923 4.84615ZM11.7692 9C11.7759 9.36785 11.7093 9.73336 11.5732 10.0752C11.437 10.417 11.2342 10.7282 10.9764 10.9907C10.7186 11.2533 10.4111 11.4618 10.0719 11.6041C9.7326 11.7465 9.36838 11.8198 9.00046 11.8198C8.63255 11.8198 8.26832 11.7465 7.92906 11.6041C7.58979 11.4618 7.2823 11.2533 7.02453 10.9907C6.76676 10.7282 6.56388 10.417 6.42775 10.0752C6.29163 9.73336 6.22498 9.36785 6.23169 9C6.24494 8.27443 6.54247 7.58306 7.06028 7.07462C7.57808 6.56619 8.27477 6.28133 9.00046 6.28133C9.72615 6.28133 10.4228 6.56619 10.9406 7.07462C11.4585 7.58306 11.756 8.27443 11.7692 9Z" fill="#CCCCCC"/>
</svg>
