<svg width="16" height="17" viewBox="0 0 16 17" fill="none" xmlns="http://www.w3.org/2000/svg">
<path fill-rule="evenodd" clip-rule="evenodd" d="M15.5 8.41756V3.85756C15.5 1.96656 15.5 1.02056 14.91 0.503556C14.321 -0.0134436 13.42 0.141556 11.619 0.453556L10.74 0.604556C9.373 0.840557 8.69 0.958557 8 0.958557C7.31 0.958557 6.627 0.840557 5.26 0.604556L4.381 0.452556C2.58 0.142556 1.679 -0.0134435 1.089 0.502556C0.5 1.02156 0.5 1.96756 0.5 3.85856V8.41856C0.5 13.1586 4.032 15.4596 6.249 16.4366C6.85 16.7016 7.151 16.8336 8 16.8336C8.85 16.8336 9.15 16.7016 9.751 16.4366C11.967 15.4596 15.5 13.1576 15.5 8.41756ZM3.976 6.11656C4.079 5.90256 4.464 5.61056 5.083 5.61056C5.703 5.61056 6.088 5.90256 6.191 6.11656C6.345 6.43656 6.721 6.56656 7.029 6.40656C7.1791 6.32588 7.29211 6.1902 7.34432 6.02798C7.39653 5.86577 7.38387 5.68964 7.309 5.53656C6.927 4.74456 6.003 4.31656 5.083 4.31656C4.163 4.31656 3.24 4.74456 2.858 5.53656C2.78313 5.68964 2.77047 5.86577 2.82268 6.02798C2.87489 6.1902 2.9879 6.32588 3.138 6.40656C3.446 6.56656 3.821 6.43656 3.976 6.11656ZM10.916 5.61056C10.297 5.61056 9.912 5.90256 9.809 6.11656C9.77429 6.19174 9.72476 6.25914 9.66337 6.31472C9.60198 6.3703 9.53 6.4129 9.45175 6.43998C9.37349 6.46706 9.29057 6.47806 9.20796 6.47232C9.12535 6.46658 9.04475 6.44421 8.971 6.40656C8.8209 6.32588 8.70789 6.1902 8.65568 6.02798C8.60347 5.86577 8.61613 5.68964 8.691 5.53656C9.073 4.74456 9.997 4.31656 10.917 4.31656C11.837 4.31656 12.76 4.74456 13.142 5.53656C13.297 5.85656 13.172 6.24656 12.862 6.40656C12.7882 6.44421 12.7076 6.46658 12.625 6.47232C12.5424 6.47806 12.4595 6.46706 12.3813 6.43998C12.303 6.4129 12.231 6.3703 12.1696 6.31472C12.1082 6.25914 12.0587 6.19174 12.024 6.11656C11.921 5.90256 11.535 5.61056 10.916 5.61056ZM4.657 10.6176C4.53599 10.4965 4.46587 10.3338 4.46103 10.1627C4.4562 9.99165 4.51701 9.82521 4.631 9.69756C4.68787 9.63729 4.75618 9.58895 4.83193 9.55536C4.90769 9.52178 4.98938 9.50361 5.07223 9.50194C5.15508 9.50026 5.23743 9.51511 5.31448 9.5456C5.39153 9.5761 5.46174 9.62164 5.521 9.67956C5.536 9.69256 5.576 9.72356 5.605 9.74456C5.689 9.80456 5.829 9.89256 6.028 9.98356C6.423 10.1636 7.067 10.3606 8 10.3606C8.933 10.3606 9.577 10.1636 9.973 9.98256C10.171 9.89256 10.311 9.80456 10.395 9.74456C10.4285 9.72113 10.4609 9.6961 10.492 9.66956V9.66856C10.5508 9.61157 10.6205 9.56701 10.6969 9.53753C10.7733 9.50805 10.8548 9.49425 10.9367 9.49696C11.0185 9.49967 11.099 9.51882 11.1732 9.55328C11.2475 9.58775 11.3141 9.63681 11.369 9.69756C11.4838 9.82371 11.5457 9.98921 11.5418 10.1598C11.5379 10.3303 11.4685 10.4928 11.348 10.6136L11.345 10.6156L11.343 10.6176L11.337 10.6236L11.32 10.6396L11.27 10.6826C11.23 10.7176 11.173 10.7626 11.102 10.8126C10.9048 10.9508 10.6948 11.07 10.475 11.1686C9.923 11.4206 9.109 11.6556 8 11.6556C6.891 11.6556 6.077 11.4206 5.525 11.1686C5.30523 11.0703 5.09528 10.9515 4.898 10.8136C4.81416 10.7538 4.73401 10.689 4.658 10.6196L4.657 10.6176Z" fill="#916CE7"/>
</svg>
