<svg width="17" height="16" viewBox="0 0 17 16" fill="none" xmlns="http://www.w3.org/2000/svg">
<path d="M0.712119 1.55668C0.256152 2.01275 0 2.63124 0 3.27615C0 3.92105 0.256152 4.53955 0.712119 4.99561L2.05105 6.33454C2.06109 6.3227 2.07155 6.31122 2.08243 6.30013L5.45557 2.92699C5.46665 2.91612 5.47813 2.90565 5.48998 2.89562L4.15104 1.55668C3.69498 1.10072 3.07648 0.844565 2.43158 0.844565C1.78668 0.844565 1.16818 1.10072 0.712119 1.55668ZM6.3826 3.78723C6.37223 3.79909 6.36143 3.81057 6.35021 3.82164L2.97707 7.19478C2.96599 7.20565 2.95451 7.21611 2.94266 7.22615L11.0289 15.3124C11.4871 15.7576 12.1022 16.0046 12.7411 15.9999C13.38 15.9953 13.9914 15.7395 14.4431 15.2877C14.8949 14.8359 15.1508 14.2245 15.1554 13.5856C15.16 12.9468 14.913 12.3317 14.4678 11.8735L6.38159 3.78723H6.3826ZM11.0481 0.260256C11.0777 0.183635 11.1298 0.117767 11.1975 0.0713141C11.2653 0.0248613 11.3455 0 11.4276 0C11.5098 0 11.59 0.0248613 11.6577 0.0713141C11.7255 0.117767 11.7776 0.183635 11.8072 0.260256L12.1695 1.18324C12.2099 1.2895 12.2939 1.37249 12.3992 1.41399L13.3202 1.77832C13.6643 1.91495 13.6643 2.40376 13.3202 2.53938L12.3992 2.90371C12.3471 2.92434 12.2998 2.95547 12.2603 2.99517C12.2208 3.03487 12.1899 3.08228 12.1695 3.13446L11.8061 4.05846C11.7766 4.13508 11.7245 4.20094 11.6567 4.2474C11.589 4.29385 11.5088 4.31871 11.4266 4.31871C11.3445 4.31871 11.2643 4.29385 11.1965 4.2474C11.1288 4.20094 11.0767 4.13508 11.0471 4.05846L10.6848 3.13446C10.6644 3.08228 10.6335 3.03487 10.594 2.99517C10.5544 2.95547 10.5072 2.92434 10.4551 2.90371L9.53411 2.53938C9.45807 2.50894 9.39289 2.45643 9.34698 2.3886C9.30107 2.32078 9.27654 2.24075 9.27654 2.15885C9.27654 2.07695 9.30107 1.99692 9.34698 1.9291C9.39289 1.86127 9.45807 1.80876 9.53411 1.77832L10.4551 1.41399C10.5072 1.39336 10.5544 1.36223 10.594 1.32253C10.6335 1.28283 10.6644 1.23542 10.6848 1.18324L11.0481 0.260256ZM14.3099 6.01373C14.3397 5.93743 14.3918 5.87189 14.4594 5.82569C14.5271 5.77949 14.6071 5.75477 14.689 5.75477C14.7708 5.75477 14.8508 5.77949 14.9185 5.82569C14.9861 5.87189 15.0382 5.93743 15.068 6.01373L15.1995 6.35074C15.2204 6.4027 15.2516 6.44987 15.2912 6.48937C15.3309 6.52887 15.3782 6.55987 15.4303 6.58047L15.7653 6.71406C16.1094 6.84967 16.1094 7.33849 15.7653 7.47512L15.4303 7.60769C15.3782 7.62832 15.3309 7.65945 15.2914 7.69915C15.2519 7.73885 15.2209 7.78626 15.2005 7.83844L15.068 8.17545C15.0384 8.25207 14.9863 8.31794 14.9185 8.36439C14.8508 8.41085 14.7706 8.43571 14.6884 8.43571C14.6063 8.43571 14.5261 8.41085 14.4584 8.36439C14.3906 8.31794 14.3385 8.25207 14.3089 8.17545L14.1774 7.83844C14.1569 7.78629 14.126 7.7389 14.0865 7.69921C14.0469 7.65952 13.9997 7.62837 13.9476 7.60769L13.6116 7.47512C13.5356 7.44468 13.4704 7.39217 13.4245 7.32434C13.3786 7.25651 13.3541 7.17649 13.3541 7.09459C13.3541 7.01269 13.3786 6.93266 13.4245 6.86484C13.4704 6.79701 13.5356 6.74449 13.6116 6.71406L13.9476 6.58047C13.9996 6.55991 14.0468 6.52891 14.0863 6.4894C14.1258 6.44989 14.1568 6.4027 14.1774 6.35074L14.3099 6.01373ZM1.79905 11.2237C1.82865 11.1471 1.88074 11.0812 1.94848 11.0348C2.01622 10.9883 2.09643 10.9635 2.17857 10.9635C2.26071 10.9635 2.34092 10.9883 2.40866 11.0348C2.4764 11.0812 2.52849 11.1471 2.55809 11.2237L2.68965 11.5607C2.71 11.6128 2.74092 11.6601 2.78046 11.6997C2.82 11.7392 2.8673 11.7701 2.91939 11.7905L3.25437 11.9241C3.59847 12.0597 3.59847 12.5485 3.25437 12.6851L2.91939 12.8177C2.86733 12.8384 2.82008 12.8695 2.78056 12.9092C2.74104 12.9489 2.7101 12.9963 2.68965 13.0484L2.55809 13.3855C2.52849 13.4621 2.4764 13.5279 2.40866 13.5744C2.34092 13.6208 2.26071 13.6457 2.17857 13.6457C2.09643 13.6457 2.01622 13.6208 1.94848 13.5744C1.88074 13.5279 1.82865 13.4621 1.79905 13.3855L1.66648 13.0484C1.64603 12.9963 1.61509 12.9489 1.57557 12.9092C1.53605 12.8695 1.4888 12.8384 1.43674 12.8177L1.10074 12.6861C1.02439 12.6559 0.958888 12.6034 0.912734 12.5354C0.866581 12.4675 0.841904 12.3872 0.841904 12.3051C0.841904 12.223 0.866581 12.1427 0.912734 12.0748C0.958888 12.0068 1.02439 11.9543 1.10074 11.9241L1.43674 11.7905C1.4887 11.7699 1.53589 11.7389 1.57541 11.6994C1.61492 11.6599 1.64591 11.6127 1.66648 11.5607L1.79905 11.2237Z" fill="#CCCCCC"/>
</svg>
