<svg width="24" height="24" viewBox="0 0 24 24" fill="none" xmlns="http://www.w3.org/2000/svg">
<path fill-rule="evenodd" clip-rule="evenodd" d="M23.8054 10.9517L23.5304 13.8741C23.0768 18.6887 22.8507 21.0963 21.4309 22.5478C20.0125 24 17.885 24 13.6313 24H10.3676C6.11391 24 3.98707 24 2.56798 22.5478C1.14889 21.0963 0.922091 18.6887 0.469221 13.8741L0.194186 10.951C-0.0218096 8.65639 -0.129807 7.50945 0.262585 7.03426C0.361526 6.91066 0.484121 6.80803 0.623199 6.73237C0.762277 6.65671 0.915045 6.60954 1.07257 6.59363C1.64352 6.54323 2.3599 7.35969 3.79411 8.99118C4.5357 9.83572 4.90649 10.2584 5.31976 10.3232C5.54872 10.3592 5.78271 10.3224 5.99367 10.2152C6.37526 10.0236 6.63086 9.50237 7.13989 8.45839L9.82399 2.9577C10.7859 0.98638 11.2676 0 11.9998 0C12.732 0 13.213 0.98638 14.1749 2.9577L16.8597 8.45839C17.3687 9.50237 17.6229 10.0236 18.0045 10.2152C18.2169 10.3224 18.4509 10.3592 18.6791 10.3232C19.0931 10.2584 19.4639 9.83572 20.2055 8.99118C21.6382 7.35969 22.3553 6.54323 22.927 6.59363C23.2352 6.62099 23.5246 6.77794 23.7363 7.03498C24.1294 7.50873 24.0214 8.65639 23.8054 10.9517ZM7.49988 19.1999C7.49988 18.7031 7.90307 18.2999 8.39986 18.2999H15.5997C15.8384 18.2999 16.0673 18.3947 16.2361 18.5635C16.4049 18.7323 16.4997 18.9612 16.4997 19.1999C16.4997 19.4385 16.4049 19.6675 16.2361 19.8362C16.0673 20.005 15.8384 20.0998 15.5997 20.0998H8.39986C7.90307 20.0998 7.49988 19.6966 7.49988 19.1999Z" fill="#916CE7"/>
</svg>
